<svg width="16" height="13" viewBox="0 0 16 13" fill="#3C3C46" stroke="#3C3C46"  xmlns="http://www.w3.org/2000/svg">
    <path d="M3.96513 1.59138C3.89018 1.64215 3.85001 1.70848 3.85001 1.77916V9.65829H10.75V1.91663L3.96513 1.59138ZM3.96513 1.59138C4.04019 1.54054 4.14672 1.50832 4.26668 1.50832M3.96513 1.59138L4.26668 1.50832M4.26668 1.50832H10.8516M4.26668 1.50832H10.8516M10.8516 1.50832C10.7915 1.62124 10.7584 1.74488 10.7517 1.86953C10.7517 1.86943 10.7517 1.86933 10.7517 1.86924L10.8516 1.50832ZM14.0667 1.6375C13.6247 1.6375 13.2481 1.92791 13.1254 2.325H12.7167V1.91666C12.7167 1.3611 12.2968 0.95 11.7334 0.95H4.26668C3.73488 0.95 3.28336 1.30781 3.28336 1.77916V2.325H2.8746C2.75193 1.92791 2.3753 1.6375 1.93333 1.6375C1.39324 1.6375 0.95 2.07154 0.95 2.60416C0.95 3.13678 1.39324 3.57082 1.93333 3.57082C2.37527 3.57082 2.75193 3.2804 2.8746 2.88332H3.28333V9.9375V11.3125C3.28333 11.7306 3.60989 12.05 4.03333 12.05H10.5667C10.9901 12.05 11.3167 11.7306 11.3167 11.3125V11.1333H11.9667C12.3901 11.1333 12.7167 10.8139 12.7167 10.3958V2.88334H13.1254C13.2481 3.28043 13.6247 3.57084 14.0667 3.57084C14.6068 3.57084 15.05 3.1368 15.05 2.60418C15.05 2.07154 14.6068 1.6375 14.0667 1.6375ZM1.93333 3.0125C1.70341 3.0125 1.51665 2.82779 1.51665 2.60416C1.51665 2.38053 1.70341 2.19582 1.93333 2.19582C2.16324 2.19582 2.35 2.38053 2.35 2.60416C2.35 2.82779 2.16324 3.0125 1.93333 3.0125ZM12.15 1.91666V2.325H11.3167V1.91666C11.3167 1.84141 11.3614 1.73836 11.4405 1.65264C11.5189 1.5677 11.6232 1.50832 11.7334 1.50832C11.8623 1.50833 11.9657 1.55034 12.0367 1.62004C12.1075 1.68967 12.15 1.7908 12.15 1.91666ZM10.75 11.3125C10.75 11.3696 10.7309 11.4134 10.7008 11.443C10.6707 11.4726 10.6256 11.4917 10.5667 11.4917H4.03333C3.97442 11.4917 3.92934 11.4726 3.8992 11.443C3.86915 11.4134 3.85001 11.3696 3.85001 11.3125V10.2167H10.75V10.8542V11.3125ZM12.15 10.3958C12.15 10.453 12.1309 10.4968 12.1008 10.5263C12.0707 10.5559 12.0256 10.575 11.9667 10.575H11.3167V9.9375V2.88334H12.15V10.3958ZM14.0667 3.0125C13.8368 3.0125 13.65 2.82779 13.65 2.60416C13.65 2.38053 13.8368 2.19582 14.0667 2.19582C14.2966 2.19582 14.4834 2.38053 14.4834 2.60416C14.4834 2.82779 14.2966 3.0125 14.0667 3.0125Z" stroke-width="0.1"/>
</svg>
