<svg width="16" height="16" viewBox="0 0 16 16"  fill="#3C3C46" stroke="#3C3C46"  xmlns="http://www.w3.org/2000/svg">
    <path d="M11.9688 4.3093H10.4563V0.731177C10.4563 0.518677 10.2845 0.346802 10.072 0.346802H5.92822C5.71572 0.346802 5.54385 0.518677 5.54385 0.731177V4.31243H4.03135C3.81885 4.31243 3.64697 4.4843 3.64697 4.6968V13.4906C3.64697 14.6843 4.61885 15.6562 5.8126 15.6562H10.1845C11.3782 15.6562 12.3501 14.6843 12.3501 13.4906V4.69368C12.3532 4.48118 12.1813 4.3093 11.9688 4.3093ZM6.30947 1.11243H9.69072V4.3093H6.30947V1.11243ZM11.5876 13.4874C11.5876 14.2593 10.9595 14.8874 10.1876 14.8874H5.81572C5.04385 14.8874 4.41572 14.2593 4.41572 13.4874V5.07493H11.5876V13.4874Z" stroke-width="0.1"/>
    <path d="M5.5 13V6H10.5V13C10.5 13.8 9.83333 14 9.5 14H7C5.8 14 5.5 13.5 5.5 13Z"/>
    <path d="M7.31895 1.88733C7.10645 1.88733 6.93457 2.0592 6.93457 2.2717V3.15295C6.93457 3.36545 7.10645 3.53733 7.31895 3.53733C7.53145 3.53733 7.70332 3.36545 7.70332 3.15295V2.2717C7.7002 2.0592 7.52832 1.88733 7.31895 1.88733Z" stroke-width="0.1"/>
    <path d="M8.68125 1.88733C8.46875 1.88733 8.29688 2.0592 8.29688 2.2717V3.15295C8.29688 3.36545 8.46875 3.53733 8.68125 3.53733C8.89375 3.53733 9.06563 3.36545 9.06563 3.15295V2.2717C9.06563 2.0592 8.89375 1.88733 8.68125 1.88733Z" stroke-width="0.1"/>
</svg>
