<svg width="15" height="16" viewBox="0 0 15 16"  fill="#3C3C46" stroke="#3C3C46" xmlns="http://www.w3.org/2000/svg">
    <path d="M1.24138 11.3793C1.37462 11.3793 1.48276 11.2714 1.48276 11.1379C1.48276 10.7387 1.80766 10.4138 2.2069 10.4138C2.60614 10.4138 2.93103 10.7387 2.93103 11.1379C2.93103 11.2714 3.03917 11.3793 3.17241 11.3793C3.30566 11.3793 3.41379 11.2714 3.41379 11.1379C3.41379 10.4724 2.87238 9.93103 2.2069 9.93103C1.54141 9.93103 1 10.4724 1 11.1379C1 11.2714 1.10814 11.3793 1.24138 11.3793Z" stroke-width="0.1"/>
    <path d="M1.24138 9.93107C1.37462 9.93107 1.48276 9.82317 1.48276 9.68969C1.48276 9.29044 1.80766 8.96555 2.2069 8.96555C2.60614 8.96555 2.93103 9.29044 2.93103 9.68969C2.93103 9.82317 3.03917 9.93107 3.17241 9.93107C3.30566 9.93107 3.41379 9.82317 3.41379 9.68969C3.41379 9.0242 2.87238 8.48279 2.2069 8.48279C1.54141 8.48279 1 9.0242 1 9.68969C1 9.82317 1.10814 9.93107 1.24138 9.93107Z" stroke-width="0.1"/>
    <path d="M1.24138 8.48282C1.37462 8.48282 1.48276 8.37492 1.48276 8.24144C1.48276 7.8422 1.80766 7.5173 2.2069 7.5173C2.60614 7.5173 2.93103 7.8422 2.93103 8.24144C2.93103 8.37492 3.03917 8.48282 3.17241 8.48282C3.30566 8.48282 3.41379 8.37492 3.41379 8.24144C3.41379 7.57596 2.87238 7.03455 2.2069 7.03455C1.54141 7.03455 1 7.57596 1 8.24144C1 8.37492 1.10814 8.48282 1.24138 8.48282Z" stroke-width="0.1"/>
    <path d="M1.24138 7.03446C1.37462 7.03446 1.48276 6.92656 1.48276 6.79308C1.48276 6.39384 1.80766 6.06894 2.2069 6.06894C2.60614 6.06894 2.93103 6.39384 2.93103 6.79308C2.93103 6.92656 3.03917 7.03446 3.17241 7.03446C3.30566 7.03446 3.41379 6.92656 3.41379 6.79308C3.41379 6.1276 2.87238 5.58618 2.2069 5.58618C1.54141 5.58618 1 6.1276 1 6.79308C1 6.92656 1.10814 7.03446 1.24138 7.03446Z" stroke-width="0.1"/>
    <path d="M1.48276 5.34484C1.48276 4.94559 1.80766 4.6207 2.2069 4.6207C2.60614 4.6207 2.93103 4.94559 2.93103 5.34484C2.93103 5.47832 3.03917 5.58622 3.17241 5.58622C3.30566 5.58622 3.41379 5.47832 3.41379 5.34484C3.41379 4.67935 2.87238 4.13794 2.2069 4.13794C1.54141 4.13794 1 4.67935 1 5.34484C1 5.47832 1.10814 5.58622 1.24138 5.58622C1.37462 5.58622 1.48276 5.47832 1.48276 5.34484Z" stroke-width="0.1"/>
    <path d="M13.0697 1.00097H12.5862H10.8966H5.10345V1H1.96552V2.71403C1.41541 2.82628 1 3.31362 1 3.89655C1 4.03003 1.10814 4.13793 1.24138 4.13793C1.37462 4.13793 1.48276 4.03003 1.48276 3.89655C1.48276 3.49731 1.80766 3.17241 2.2069 3.17241C2.60614 3.17241 2.93103 3.49731 2.93103 3.89655C2.93103 4.03003 3.03917 4.13793 3.17241 4.13793C3.30566 4.13793 3.41379 4.03003 3.41379 3.89655C3.41379 3.31362 2.99838 2.82628 2.44828 2.71403V1.48276H4.62069V14.5172H2.44828V13.5517V12.8276C2.44828 12.6941 2.34014 12.5862 2.2069 12.5862C2.07366 12.5862 1.96552 12.6941 1.96552 12.8276V13.2657C1.68528 13.1658 1.48276 12.9005 1.48276 12.5862C1.48276 12.187 1.80766 11.8621 2.2069 11.8621C2.60614 11.8621 2.93103 12.187 2.93103 12.5862C2.93103 12.7197 3.03917 12.8276 3.17241 12.8276C3.30566 12.8276 3.41379 12.7197 3.41379 12.5862C3.41379 11.9207 2.87238 11.3793 2.2069 11.3793C1.54141 11.3793 1 11.9207 1 12.5862C1 13.1691 1.41541 13.6565 1.96552 13.7687V15H4.62069H5.10345H10.8966H12.5862H13.0697C13.6017 15 14.0345 14.5672 14.0345 14.0354V1.96552C14.0345 1.43376 13.6017 1.00097 13.0697 1.00097ZM5.10345 14.5172V1.48372H10.8966V14.5172H5.10345ZM11.3793 14.5172V1.48372H12.1034V14.5172H11.3793ZM13.5517 14.0354C13.5517 14.301 13.3354 14.5172 13.0697 14.5172H12.5862V1.48372H13.0697C13.3354 1.48372 13.5517 1.69976 13.5517 1.96552V14.0354Z" stroke-width="0.1"/>
</svg>
