<svg width="14" height="13" viewBox="0 0 14 13" fill="#3C3C46" xmlns="http://www.w3.org/2000/svg">
    <path d="M13.2162 5.22559H12.8831V3.22436C12.8831 2.40607 12.217 1.74282 11.4016 1.74282H11.0943L11.0972 0.99918C11.0972 0.447908 10.6493 0 10.098 0H1.21452C0.551271 0 0.00861362 0.534044 0 1.19729C0 1.20304 0 1.20878 0 1.21452V11.0168C0 11.5681 0.447908 12.016 0.99918 12.016H11.4044C12.2227 12.016 12.886 11.3499 12.886 10.5345V8.53035H13.219C13.6497 8.53035 14 8.18007 14 7.74939V6.00656C13.9971 5.57588 13.6468 5.22559 13.2162 5.22559ZM1.21452 0.689089H10.098C10.2674 0.689089 10.4081 0.826907 10.4081 0.996309L10.4052 1.74282H1.21452C0.924528 1.74282 0.689089 1.50738 0.689089 1.21739C0.689089 0.927399 0.924528 0.689089 1.21452 0.689089ZM12.194 10.5316C12.194 10.968 11.838 11.324 11.4016 11.324H0.996308C0.826907 11.324 0.686218 11.1862 0.686218 11.0139V2.31132C0.847006 2.38884 1.02502 2.43191 1.21452 2.43191H11.4016C11.838 2.43191 12.194 2.78794 12.194 3.22436V5.22559H9.84249C9.41181 5.22559 9.06153 5.57588 9.06153 6.00656V7.74939C9.06153 8.18007 9.41181 8.53035 9.84249 8.53035H12.194V10.5316ZM13.308 7.74939C13.308 7.80107 13.2678 7.84126 13.2162 7.84126H9.84536C9.79368 7.84126 9.75349 7.80107 9.75349 7.74939V6.00656C9.75349 5.95775 9.79368 5.91468 9.84536 5.91468H13.2162C13.265 5.91468 13.308 5.95488 13.308 6.00656V7.74939Z"/>
</svg>
