<svg width="14" height="14" viewBox="0 0 14 14" fill="#3C3C46" xmlns="http://www.w3.org/2000/svg">
    <path d="M13.5898 1.01044H11.7933C11.7998 0.811453 11.8034 0.611287 11.8034 0.410159C11.8034 0.18361 11.6197 0 11.3933 0H2.60674C2.38029 0 2.19658 0.18361 2.19658 0.410159C2.19658 0.611287 2.20021 0.811453 2.20673 1.01044H0.410156C0.183609 1.01044 0 1.19406 0 1.4206C0 3.25842 0.480331 4.9923 1.35245 6.303C2.21452 7.59874 3.36285 8.34194 4.60336 8.41425C4.8846 8.72027 5.18185 8.96978 5.4915 9.16012V10.9831H4.80342C3.97157 10.9831 3.29492 11.6598 3.29492 12.4916V13.1797H3.26576C3.03922 13.1797 2.85561 13.3634 2.85561 13.5898C2.85561 13.8164 3.03922 14 3.26576 14H10.7342C10.9608 14 11.1444 13.8164 11.1444 13.5898C11.1444 13.3634 10.9608 13.1797 10.7342 13.1797H10.7051V12.4916C10.7051 11.6598 10.0284 10.9831 9.19658 10.9831H8.5085V9.16012C8.81815 8.96989 9.11551 8.72027 9.39674 8.41425C10.6371 8.34194 11.7855 7.59874 12.6477 6.303C13.5198 4.9923 14 3.25842 14 1.4206C14 1.19406 13.8164 1.01044 13.5898 1.01044ZM2.0354 5.84862C1.31602 4.76757 0.893372 3.35359 0.828964 1.83076H2.25255C2.40048 3.70276 2.8399 5.43312 3.5267 6.80662C3.63608 7.02537 3.75047 7.23205 3.86914 7.42666C3.18694 7.16903 2.55557 6.63048 2.0354 5.84862ZM9.88477 12.4916V13.1798H4.11523V12.4916C4.11523 12.1122 4.42392 11.8034 4.80342 11.8034H9.19658C9.57608 11.8034 9.88477 12.1122 9.88477 12.4916ZM7.68819 10.9831H6.31181V9.51655C6.53729 9.57594 6.76704 9.60681 7 9.60681C7.23296 9.60681 7.46271 9.57594 7.68819 9.51655V10.9831ZM7.94218 8.54071C7.92371 8.5483 7.90598 8.55748 7.88899 8.56763C7.59911 8.71183 7.30121 8.78649 7 8.78649C6.6989 8.78649 6.40111 8.71183 6.11133 8.56785C6.09413 8.55748 6.07629 8.5483 6.0576 8.5405C5.73599 8.37046 5.42485 8.11368 5.13058 7.77626C5.1151 7.75415 5.09769 7.73375 5.07835 7.71516C4.78622 7.36834 4.5114 6.94173 4.26039 6.43972C3.50662 4.93227 3.07126 2.95016 3.0217 0.820319H10.9783C10.9286 2.95016 10.4933 4.93238 9.73961 6.43972C9.4886 6.94173 9.21378 7.36834 8.92175 7.71516C8.90231 7.73375 8.88469 7.75426 8.86931 7.77637C8.57504 8.11389 8.26379 8.37056 7.94218 8.54071ZM11.9646 5.84862C11.4444 6.63048 10.8131 7.16903 10.1309 7.42666C10.2495 7.23205 10.3639 7.02537 10.4733 6.80662C11.1601 5.43312 11.5994 3.70276 11.7475 1.83076H13.171C13.1066 3.35359 12.684 4.76757 11.9646 5.84862Z"/>
</svg>
