<svg width="14" height="16" viewBox="0 0 14 16"  fill="#3C3C46" stroke="white" xmlns="http://www.w3.org/2000/svg">
    <path d="M10.7972 9.37708H12.5509L9.93131 5.63317H11.4016L6.99996 0L2.59842 5.63317H4.06867L1.44901 9.37708H3.20273L0.476196 13.6491H5.65924V16H8.34074V13.6491H13.5238L10.7972 9.37708ZM5.89174 4.68373H4.54514L6.99993 1.542L9.45471 4.68373H8.10812L10.7277 8.42764H9.06481L10.6695 10.9419C10.6028 10.9902 10.5443 11.0389 10.4918 11.0826C10.3269 11.2201 10.2441 11.2891 10.0362 11.2891C9.82831 11.2891 9.74553 11.2201 9.58062 11.0826C9.36462 10.9026 9.06884 10.6561 8.51718 10.6561C7.96555 10.6561 7.6698 10.9026 7.4538 11.0826C7.28893 11.2201 7.20615 11.2891 6.99837 11.2891C6.79052 11.2891 6.70777 11.2201 6.54286 11.0826C6.3269 10.9026 6.03111 10.6561 5.47949 10.6561C4.92789 10.6561 4.63211 10.9026 4.41614 11.0826C4.25127 11.2201 4.16848 11.2891 3.9607 11.2891C3.75292 11.2891 3.67014 11.2201 3.50527 11.0826C3.4533 11.0393 3.39536 10.9911 3.32942 10.9432L4.93496 8.4277H3.27217L5.89174 4.68373ZM7.39127 15.0506H6.60865V13.6491H7.39127V15.0506ZM8.34071 12.6996H5.65921H2.20851L2.81701 11.7462C2.84176 11.7659 2.86789 11.7873 2.89745 11.8119C3.11342 11.9919 3.40917 12.2385 3.9608 12.2385C4.51242 12.2385 4.80817 11.992 5.02414 11.8119C5.18902 11.6745 5.2718 11.6055 5.47958 11.6055C5.68739 11.6055 5.77018 11.6745 5.93508 11.8119C6.15105 11.9919 6.44683 12.2385 6.99846 12.2385C7.55005 12.2385 7.84584 11.992 8.06181 11.8119C8.22668 11.6745 8.30946 11.6055 8.51728 11.6055C8.72515 11.6055 8.80793 11.6745 8.97287 11.812C9.18887 11.992 9.48465 12.2385 10.0363 12.2385C10.5879 12.2385 10.8837 11.992 11.0997 11.812C11.13 11.7867 11.1568 11.7648 11.182 11.7448L11.7914 12.6996H8.34071V12.6996Z" stroke-width="0.2"/>
</svg>
