<svg width="16" height="14" viewBox="0 0 16 14"  fill="#3C3C46" stroke="#3C3C46"  xmlns="http://www.w3.org/2000/svg">
    <path d="M10.9168 1H9.45862C9.45862 1.82724 8.80407 2.50003 8 2.50003C7.19593 2.50003 6.54181 1.82724 6.54181 1H5.08341L1 3.4L2.16681 6.69997L3.91681 6.09992V13H12.0836V6.09992L13.8336 6.69997L15 3.4L10.9168 1ZM13.479 5.9461L12.2678 5.53082L11.5 5.26741V6.09994V12.3997H4.5V6.09994V5.26741L3.73224 5.53085L2.521 5.94613L1.71627 3.67005L5.23828 1.60006H6.04301C6.29402 2.46752 7.07523 3.10008 8 3.10008C8.92498 3.10008 9.706 2.46752 9.95677 1.60006H10.7617L14.2839 3.67005L13.479 5.9461Z" stroke-width="0.2"/>
</svg>
