<svg width="14" height="14" viewBox="0 0 14 14"  fill="#3C3C46" stroke="white"  xmlns="http://www.w3.org/2000/svg" >
    <path d="M4.93093 6.99959V6.9997C4.93093 8.14238 5.85727 9.06872 6.99995 9.06872C8.14262 9.06872 9.06896 8.14238 9.06896 6.9997C9.06896 5.85703 8.14262 4.93069 6.99995 4.93069L6.99983 4.93069C5.85773 4.93201 4.93225 5.85749 4.93093 6.99959ZM3.59023 6.99976C3.59232 5.11742 5.11766 3.59208 7 3.58999C8.88314 3.59002 10.4097 5.11656 10.4097 6.9997C10.4097 8.88287 8.88311 10.4094 6.99995 10.4094C5.1168 10.4094 3.59026 8.8829 3.59023 6.99976Z" stroke-width="0.2"/>
    <path d="M0.836999 6.32961H2.20591C2.57611 6.32961 2.87626 6.62977 2.87626 6.99996C2.87626 7.37016 2.57611 7.67031 2.20591 7.67031H0.836999C0.466803 7.67031 0.16665 7.37016 0.16665 6.99996C0.16665 6.62977 0.466803 6.32961 0.836999 6.32961Z" stroke-width="0.2"/>
    <path d="M2.16951 2.186L2.16951 2.186C2.42647 1.91991 2.85044 1.91234 3.11678 2.16891L4.08461 3.13673C4.33489 3.39651 4.33472 3.80791 4.08404 4.06758C3.82697 4.33369 3.40309 4.34124 3.13676 4.08459L2.16892 3.11676C1.91863 2.85697 1.91882 2.44556 2.16951 2.186Z" stroke-width="0.2"/>
    <path d="M6.32925 0.837124C6.32925 0.466926 6.6294 0.166772 6.9996 0.166772C7.3698 0.166772 7.66995 0.466926 7.66995 0.837124V2.20604C7.66995 2.57624 7.3698 2.87639 6.9996 2.87639C6.6294 2.87639 6.32925 2.57624 6.32925 2.20604V0.837124Z" stroke-width="0.2"/>
    <path d="M10.8132 2.09749L9.84406 3.06659C9.53803 3.36221 9.52956 3.84985 9.82518 4.15587C10.1208 4.46189 10.6084 4.47036 10.9145 4.17474C10.9209 4.16858 10.9272 4.16222 10.9333 4.15587L11.9024 3.18677M10.8132 2.09749L10.8839 2.16821L9.91477 3.1373L9.91354 3.13853L9.91353 3.13851C9.64723 3.39577 9.63986 3.8201 9.89711 4.08639C10.1544 4.3527 10.5787 4.36006 10.845 4.10282L10.8454 4.10243C10.8504 4.0976 10.8557 4.09232 10.8615 4.08625L10.8626 4.08515L10.8626 4.08516L11.8317 3.11607M10.8132 2.09749C11.114 1.79677 11.6016 1.79677 11.9024 2.09749C12.2032 2.39831 12.2032 2.88595 11.9024 3.18677M10.8132 2.09749L10.8839 2.1682C11.1456 1.90653 11.5699 1.90653 11.8317 2.16819M11.8317 3.11607L11.9024 3.18677M11.8317 3.11607C12.0934 2.8543 12.0934 2.42996 11.8317 2.16819M11.8317 3.11607L11.8317 3.11606L11.9024 3.18677M11.8317 2.16819L11.9024 2.0975L11.8317 2.16821C11.8317 2.16821 11.8317 2.1682 11.8317 2.16819Z" stroke-width="0.2"/>
    <path d="M11.7943 6.32961H13.1632C13.5334 6.32961 13.8335 6.62977 13.8335 6.99996C13.8335 7.37016 13.5334 7.67031 13.1632 7.67031H11.7943C11.4241 7.67031 11.1239 7.37016 11.1239 6.99996C11.1239 6.62977 11.4241 6.32961 11.7943 6.32961Z" stroke-width="0.2"/>
    <path d="M10.8621 9.91504C10.8621 9.91504 10.8621 9.91503 10.862 9.91503C10.6003 9.65335 10.1759 9.65336 9.91417 9.91504C9.6525 10.1768 9.6525 10.6011 9.91419 10.8629L10.8827 11.8313C11.149 12.088 11.5729 12.0804 11.8299 11.8144L10.8621 9.91504ZM10.8621 9.91504L11.8305 10.8835C12.0808 11.1433 12.0806 11.5547 11.8299 11.8143L10.8621 9.91504Z" stroke-width="0.2"/>
    <path d="M6.32925 11.794C6.32925 11.4238 6.6294 11.1237 6.9996 11.1237C7.3698 11.1237 7.66995 11.4238 7.66995 11.794V13.1629C7.66995 13.5331 7.3698 13.8333 6.9996 13.8333C6.6294 13.8333 6.32925 13.5331 6.32925 13.1629V11.794Z" stroke-width="0.2"/>
    <path d="M4.06779 9.91597L4.0678 9.91597C4.33387 10.1729 4.34138 10.5969 4.08479 10.8632L3.11631 11.8317L3.1163 11.8317L3.11523 11.8328C3.10936 11.8389 3.10414 11.8441 3.09907 11.849L3.09867 11.8494C2.83237 12.1066 2.40803 12.0993 2.15077 11.8329C1.89352 11.5666 1.90089 11.1423 2.1672 10.8851L2.16721 10.8851L2.16843 10.8839L3.13691 9.91539C3.39681 9.66508 3.80824 9.66529 4.06779 9.91597Z" stroke-width="0.2"/>
</svg>
