<svg width="16" height="16" viewBox="0 0 16 16" fill="#3C3C46" xmlns="http://www.w3.org/2000/svg">
    <path d="M0.3125 11.4375H0.625V15.6875C0.625 15.8601 0.764893 16 0.9375 16H15.0625C15.5795 16 16 15.5795 16 15.0625V3.4375C16 3.26489 15.8601 3.125 15.6875 3.125H13.3125V2.8125C13.3125 1.26172 12.0508 0 10.5 0C8.95215 0 7.6875 1.25232 7.6875 2.8125V3.125H5.3125C5.13989 3.125 5 3.26489 5 3.4375V6.75061C4.69385 6.98108 4.48267 7.31665 4.40649 7.68945C4.396 7.68835 4.3855 7.6875 4.375 7.6875C4.3645 7.6875 4.35413 7.68823 4.34375 7.68848C4.19897 6.97571 3.56738 6.4375 2.8125 6.4375C1.95093 6.4375 1.25 7.13843 1.25 8C1.25 8.35144 1.3667 8.67615 1.56335 8.9375H0.3125C0.139893 8.9375 0 9.07739 0 9.25V11.125C0 11.2976 0.139893 11.4375 0.3125 11.4375ZM1.25 11.4375H2.8125V15.375H1.25V11.4375ZM3.4375 11.4375H5.3125V15.375H3.4375V11.4375ZM7.5 15.375C6.82971 15.375 6.66992 15.375 5.9375 15.375V11.4375H7.5V15.375ZM5.9375 10.8125V9.5625H8.125V10.8125H5.9375ZM5.9375 8.9375C5.92676 8.9375 5.91614 8.93689 5.90552 8.93652C5.8595 8.71033 5.76416 8.49756 5.625 8.3125V7.11633C5.72498 7.08105 5.83057 7.0625 5.9375 7.0625C6.45447 7.0625 6.875 7.48303 6.875 8C6.875 8.51697 6.45447 8.9375 5.9375 8.9375ZM4.35681 8.31262L4.62732 8.3468C4.91589 8.42725 5.15576 8.646 5.25903 8.9375H3.49194C3.62073 8.57654 3.95898 8.32019 4.35681 8.31262ZM5.3125 9.5625V10.8125H3.4375V9.5625H5.3125ZM15.0625 15.375H8.125V14.125H15.375V15.0625C15.375 15.2349 15.2349 15.375 15.0625 15.375ZM8.3125 2.8125C8.3125 1.60596 9.28894 0.625 10.5 0.625C11.7062 0.625 12.6875 1.60632 12.6875 2.8125V3.125H8.3125V2.8125ZM7.6875 3.75V5.1875H7.375C7.20239 5.1875 7.0625 5.32739 7.0625 5.5C7.0625 5.67261 7.20239 5.8125 7.375 5.8125H8.625C8.79761 5.8125 8.9375 5.67261 8.9375 5.5C8.9375 5.32739 8.79761 5.1875 8.625 5.1875H8.3125V3.75H12.6875V5.1875H12.375C12.2024 5.1875 12.0625 5.32739 12.0625 5.5C12.0625 5.67261 12.2024 5.8125 12.375 5.8125H13.625C13.7976 5.8125 13.9375 5.67261 13.9375 5.5C13.9375 5.32739 13.7976 5.1875 13.625 5.1875H13.3125V3.75H15.375V13.5H8.125V11.4375H8.4375C8.61011 11.4375 8.75 11.2976 8.75 11.125V9.25C8.75 9.07739 8.61011 8.9375 8.4375 8.9375H7.18665C7.3833 8.67615 7.5 8.35144 7.5 8C7.5 7.13843 6.79907 6.4375 5.9375 6.4375C5.83215 6.4375 5.72754 6.44836 5.625 6.46924V3.75H7.6875ZM1.875 8C1.875 7.48303 2.29553 7.0625 2.8125 7.0625C3.26978 7.0625 3.65149 7.39172 3.73352 7.82556C3.27917 8.03125 2.94629 8.44727 2.84485 8.93652C2.83411 8.93689 2.82336 8.9375 2.8125 8.9375C2.29553 8.9375 1.875 8.51697 1.875 8ZM0.625 9.5625H2.8125V10.8125H0.625V9.5625Z"/>
</svg>
