<svg width="16" height="16" viewBox="0 0 16 16" fill="#3C3C46" stroke="#3C3C46" xmlns="http://www.w3.org/2000/svg">
    <path d="M12.4524 5.95215H3.78553C3.27355 5.95215 2.85693 6.36877 2.85693 6.88074V7.49979C2.85693 9.7086 4.07711 11.7119 6.04076 12.7278C6.19244 12.8058 6.37938 12.747 6.45802 12.5947C6.53602 12.443 6.4772 12.256 6.32491 12.1774C4.56801 11.2686 3.47599 9.47645 3.47599 7.49976V6.88071C3.47599 6.70985 3.61467 6.57117 3.78553 6.57117H12.4524C12.6233 6.57117 12.7619 6.70985 12.7619 6.88071V7.49976C12.7619 9.47642 11.6699 11.2686 9.91241 12.1768C9.76012 12.2554 9.7013 12.4423 9.7793 12.594C9.83441 12.7005 9.94274 12.7618 10.0548 12.7618C10.1031 12.7618 10.1514 12.7506 10.1965 12.7271C12.1608 11.7118 13.381 9.70918 13.381 7.49974V6.88068C13.381 6.36877 12.9644 5.95215 12.4524 5.95215Z" stroke-width="0.1"/>
    <path d="M15.2152 12.3335C15.1669 12.2177 15.0542 12.1422 14.9292 12.1422H1.30981C1.18477 12.1422 1.07209 12.2177 1.0238 12.3335C0.975515 12.4493 1.00213 12.5824 1.09066 12.6709L1.78464 13.3655C2.19447 13.7747 2.73799 14 3.31682 14H12.9209C13.4998 14 14.0439 13.7747 14.4544 13.3655L15.1483 12.6709C15.2369 12.5824 15.2635 12.4493 15.2152 12.3335ZM14.0161 12.9278C13.7239 13.22 13.3345 13.381 12.9216 13.381H3.31682C2.90391 13.381 2.51451 13.22 2.22233 12.9278L2.05643 12.7619H14.182L14.0161 12.9278Z" stroke-width="0.1"/>
    <path d="M15.2584 7.41385C14.4246 6.87774 13.0924 7.45967 12.9431 7.52714C12.7877 7.59832 12.7184 7.78158 12.7896 7.93758C12.8608 8.09358 13.0434 8.1623 13.2 8.09112C13.4984 7.95554 14.4555 7.63425 14.9235 7.93572C15.1346 8.0713 15.238 8.33441 15.238 8.73803C15.238 9.97738 12.7382 10.7265 11.7731 10.9109L11.5539 10.9543C11.3862 10.9871 11.2772 11.1499 11.31 11.3177C11.3391 11.465 11.4685 11.5671 11.6134 11.5671C11.6332 11.5671 11.653 11.5653 11.6734 11.561L11.8907 11.5182C12.0529 11.4873 15.857 10.7413 15.857 8.73803C15.8571 8.11526 15.6553 7.67015 15.2584 7.41385Z" stroke-width="0.1"/>
    <path d="M10.5288 3.35948C11.0321 2.7305 11.0321 1.74559 10.5288 1.11661C10.4217 0.982891 10.2279 0.960604 10.0936 1.06832C9.95986 1.17543 9.93818 1.36979 10.0453 1.50351C10.3641 1.90156 10.3641 2.5745 10.0447 2.9738C9.54077 3.60277 9.54077 4.58769 10.0447 5.21667C10.106 5.29342 10.1957 5.33306 10.2867 5.33306C10.3542 5.33306 10.4229 5.31077 10.4799 5.26495C10.6136 5.15785 10.6353 4.96284 10.5282 4.82976C10.2087 4.43169 10.2087 3.75878 10.5288 3.35948Z" stroke-width="0.1"/>
    <path d="M8.66919 3.35947C9.1731 2.73049 9.1731 1.74557 8.66919 1.1166C8.56272 0.982879 8.36771 0.961202 8.23399 1.06831C8.10027 1.17542 8.0786 1.37042 8.1857 1.5035C8.50514 1.90155 8.50514 2.57449 8.18509 2.97378C7.68179 3.60276 7.68179 4.58768 8.18509 5.21665C8.24638 5.29341 8.33614 5.33305 8.42714 5.33305C8.49461 5.33305 8.56272 5.31076 8.62029 5.26494C8.75401 5.15783 8.77569 4.96347 8.66858 4.82975C8.34975 4.43167 8.34975 3.75876 8.66919 3.35947Z" stroke-width="0.1"/>
    <path d="M6.81465 3.36021C7.31795 2.73123 7.31795 1.74632 6.81465 1.11734C6.70819 0.983623 6.51379 0.961337 6.37946 1.06905C6.24636 1.17552 6.22471 1.37053 6.33118 1.50364C6.65 1.90168 6.65 2.57462 6.33057 2.97392C5.82666 3.60289 5.82666 4.58781 6.33057 5.21679C6.39185 5.29354 6.48161 5.33318 6.57261 5.33318C6.64008 5.33318 6.70879 5.31089 6.76576 5.26571C6.89948 5.15861 6.92115 4.9636 6.81404 4.83052C6.49461 4.43181 6.49461 3.75951 6.81465 3.36021Z" stroke-width="0.1"/>
</svg>
