<svg width="8" height="13" viewBox="0 0 8 13"  fill="#3C3C46" xmlns="http://www.w3.org/2000/svg">
    <path d="M4.00098 0C2.92621 0 1.91748 0.459797 1.16026 1.29451C0.411635 2.12011 -0.000384863 3.21547 2.69756e-07 4.37829C0.00108346 7.3779 1.69896 9.33864 3.44561 9.68825L2.80001 10.5625H3.59991L3.59923 13H4.39923L4.3999 10.5625H5.19999L4.55557 9.68979C5.38326 9.52881 6.17628 9.02027 6.79013 8.23014C7.57079 7.22445 8.00039 5.85652 8 4.37832C7.99921 1.96421 6.20511 0 4.00098 0ZM6.16215 7.72668C5.56464 8.49634 4.77695 8.93749 4.00098 8.93749C2.4623 8.93749 0.80098 7.19425 0.7998 4.37829C0.799415 3.4198 1.13643 2.52001 1.74877 1.84479C2.35253 1.17907 3.15234 0.812492 4.00098 0.812492C5.76421 0.812492 7.19941 2.4121 7.2002 4.37829C7.20058 5.6752 6.83194 6.8642 6.16215 7.72668Z"/>
</svg>
