<svg width="16" height="16" viewBox="0 0 16 16" fill="#3C3C46" xmlns="http://www.w3.org/2000/svg">
    <path d="M15.3857 8.84805L9.1763 2.63516C8.8484 2.30726 8.41005 2.12432 7.94753 2.12432C7.90956 2.12432 7.8716 2.12432 7.83363 2.12777L3.34309 2.42461C2.85641 2.45567 2.46293 2.84916 2.43186 3.33583L2.32486 4.93048C2.09706 4.79932 1.8796 4.63364 1.68286 4.4369C1.20309 3.95712 0.906251 3.36 0.844122 2.75251C0.785445 2.17609 0.951122 1.6618 1.31009 1.30284C2.07289 0.540031 3.4777 0.70916 4.4476 1.67561C4.60983 1.83784 4.87215 1.83784 5.03437 1.67561C5.1966 1.51339 5.1966 1.25106 5.03437 1.08884C3.73657 -0.198613 1.80367 -0.36429 0.719864 0.719515C0.181413 1.25797 -0.0671024 2.00697 0.0157362 2.8388C0.0951232 3.63612 0.478252 4.41274 1.09264 5.02712C1.4378 5.37228 1.83819 5.64496 2.26273 5.83135L2.13157 7.82983C2.09706 8.33031 2.28344 8.82044 2.63896 9.17596L8.85185 15.3889C9.24534 15.7823 9.76653 15.9963 10.3222 15.9963C10.8779 15.9963 11.3991 15.7789 11.7926 15.3889L15.3927 11.7888C15.7861 11.3953 16.0001 10.8741 16.0001 10.3184C15.9967 9.75928 15.7792 9.23808 15.3857 8.84805ZM14.8024 11.1986L11.1989 14.8021C10.9642 15.0368 10.6501 15.1679 10.3153 15.1679C9.98053 15.1679 9.66643 15.0368 9.43172 14.8021L3.21883 8.58918C3.03244 8.4028 2.9358 8.14738 2.95306 7.88505L3.07386 6.07641C3.14289 6.08677 3.21193 6.09712 3.28096 6.10402C3.38451 6.11438 3.48805 6.12128 3.58815 6.12128C4.29573 6.12128 4.92737 5.87277 5.39679 5.40335C5.55902 5.24112 5.55902 4.9788 5.39679 4.81657C5.23457 4.65435 4.97225 4.65435 4.81002 4.81657C4.45105 5.17554 3.93676 5.34122 3.36034 5.28254C3.28096 5.27564 3.20502 5.26183 3.12909 5.24803L3.25335 3.39796C3.2568 3.32203 3.31893 3.26335 3.39486 3.25645L7.8854 2.95961C7.90611 2.95961 7.92682 2.95616 7.94753 2.95616C8.18915 2.95616 8.42385 3.0528 8.59298 3.22193L14.8024 9.43137C15.0371 9.66608 15.1683 9.98018 15.1683 10.315C15.1683 10.6498 15.0371 10.9639 14.8024 11.1986Z"/>
</svg>
