<svg width="16" height="16" viewBox="0 0 16 16" fill="#3C3C46" xmlns="http://www.w3.org/2000/svg">
    <path d="M15.2702 13.1691C15.0644 12.5078 14.7013 11.9064 14.2121 11.4161L3.90933 1.11337C3.75783 0.962025 3.51225 0.962025 3.3609 1.11337L3.30333 1.17094L2.48917 0.346329C2.27055 0.124836 1.97225 0 1.66092 0C1.34958 0 1.05128 0.124836 0.832664 0.346329L0.354985 0.830523C-0.0925462 1.28654 -0.0899707 2.01753 0.36059 2.47051L1.1793 3.28922L0.878114 3.58707C0.51103 3.95006 0.303778 4.4444 0.302414 4.96057C0.300899 5.47673 0.505273 5.97213 0.870236 6.33725L3.97432 9.44118C4.12582 9.59268 4.3714 9.59268 4.5229 9.44118C4.67425 9.28983 4.67425 9.04425 4.52275 8.89275L1.41882 5.78866C0.97462 5.34462 0.963257 4.62802 1.39306 4.17019L6.03624 8.81336L6.88418 9.66146L7.43291 10.2099L11.4255 14.2025C11.9156 14.6919 12.5173 15.0549 13.1786 15.2607L15.5067 15.9826C15.6441 16.0252 15.7939 15.9883 15.8957 15.8864C15.9975 15.7846 16.0345 15.6348 15.9919 15.4972L15.2702 13.1691ZM0.907202 1.37532L1.38473 0.891123C1.4576 0.817191 1.55714 0.77568 1.66092 0.77568C1.76469 0.77568 1.86423 0.817191 1.9371 0.891123L2.75475 1.71937L1.73091 2.74351L0.90902 1.92193C0.758884 1.77104 0.757975 1.52727 0.907202 1.37532ZM1.94573 3.6257L3.63511 1.93617L7.75122 6.05227L6.06169 7.7418L1.94573 3.6257ZM6.61027 8.29023L8.29965 6.6007L9.12244 7.4235L7.43291 9.11303L6.61027 8.29023ZM7.9815 9.66146L9.67102 7.97193L13.6635 11.9646C13.7038 12.005 13.743 12.0465 13.7812 12.0889L12.0984 13.7718C12.0561 13.7335 12.0144 13.6942 11.9743 13.6541L7.9815 9.66146ZM13.4084 14.5198C13.1749 14.4472 12.9498 14.3504 12.7365 14.2307L14.2401 12.7271C14.3598 12.9402 14.4568 13.1655 14.5293 13.399L15.0331 15.0235L13.4084 14.5198Z"/>
</svg>
