<svg width="16" height="14" viewBox="0 0 16 14"  fill="#3C3C46" stroke="#3C3C46" xmlns="http://www.w3.org/2000/svg">
    <path d="M14.3 3H11.2667V2.11111C11.2659 1.49772 10.7441 1.00076 10.1 1H5.9C5.25594 1.00076 4.73413 1.49772 4.73333 2.11111V3H1.7C1.31343 3 1 3.2985 1 3.66667V8.61328C1.00148 8.89518 1.18799 9.14594 1.46667 9.24067V12.3333C1.46667 12.7015 1.78009 13 2.16667 13H13.8333C14.2199 13 14.5333 12.7015 14.5333 12.3333V9.24089C14.812 9.14605 14.9986 8.89518 15 8.61328V3.66667C15 3.2985 14.6866 3 14.3 3ZM5.2 2.11111C5.2 1.74295 5.51343 1.44444 5.9 1.44444H10.1C10.4866 1.44444 10.8 1.74295 10.8 2.11111V3H10.3333V2.11111C10.3333 1.98839 10.2289 1.88889 10.1 1.88889H5.9C5.77114 1.88889 5.66667 1.98839 5.66667 2.11111V3H5.2V2.11111ZM9.86667 3H6.13333V2.33333H9.86667V3ZM14.0667 12.3333C14.0667 12.4561 13.9622 12.5556 13.8333 12.5556H2.16667C2.03781 12.5556 1.93333 12.4561 1.93333 12.3333V9.31706L7.06667 9.99132V10.5556C7.06667 10.9237 7.38009 11.2222 7.76667 11.2222H8.23333C8.61991 11.2222 8.93333 10.9237 8.93333 10.5556V9.99132L14.0667 9.31706V12.3333ZM8.46667 10.5556C8.46667 10.6783 8.36219 10.7778 8.23333 10.7778H7.76667C7.63781 10.7778 7.53333 10.6783 7.53333 10.5556V9.22222C7.53333 9.0995 7.63781 9 7.76667 9H8.23333C8.36219 9 8.46667 9.0995 8.46667 9.22222V10.5556ZM14.5333 8.61328C14.5334 8.72407 14.4479 8.81803 14.3327 8.83355L14.268 8.84201L8.93333 9.54264V9.22222C8.93333 8.85406 8.61991 8.55556 8.23333 8.55556H7.76667C7.38009 8.55556 7.06667 8.85406 7.06667 9.22222V9.54264L1.66753 8.83355C1.55234 8.81814 1.46655 8.72418 1.46667 8.61328V3.66667C1.46667 3.54395 1.57114 3.44444 1.7 3.44444H14.3C14.4289 3.44444 14.5333 3.54395 14.5333 3.66667V8.61328Z" stroke-width="0.2"/>
</svg>
