<svg width="14" height="14" viewBox="0 0 14 14" fill="#3C3C46" xmlns="http://www.w3.org/2000/svg">
    <path d="M12.7695 3.28125H11.1004C11.3585 2.93825 11.5117 2.5121 11.5117 2.05078C11.5117 0.91998 10.5917 0 9.46094 0C8.77978 0 8.2775 0.244043 7.88022 0.768004C7.54786 1.20638 7.30483 1.81844 7 2.59178C6.69517 1.81841 6.45214 1.20638 6.11978 0.768004C5.7225 0.244043 5.22022 0 4.53906 0C3.40826 0 2.48828 0.91998 2.48828 2.05078C2.48828 2.5121 2.64149 2.93825 2.89956 3.28125H1.23047C0.551988 3.28125 0 3.83324 0 4.51172V5.33203C0 5.86674 0.342918 6.32264 0.820312 6.49195V12.7695C0.820312 13.448 1.3723 14 2.05078 14H11.9492C12.6277 14 13.1797 13.448 13.1797 12.7695V6.49195C13.6571 6.32264 14 5.86674 14 5.33203V4.51172C14 3.83324 13.448 3.28125 12.7695 3.28125ZM7.75288 2.91867C8.38122 1.32459 8.62009 0.820312 9.46094 0.820312C10.1394 0.820312 10.6914 1.3723 10.6914 2.05078C10.6914 2.72926 10.1394 3.28125 9.46094 3.28125H7.60941C7.65967 3.15506 7.7076 3.03357 7.75288 2.91867ZM4.53906 0.820312C5.37991 0.820312 5.61879 1.32459 6.24712 2.91867C6.2924 3.03357 6.34033 3.15506 6.39059 3.28125H4.53906C3.86058 3.28125 3.30859 2.72926 3.30859 2.05078C3.30859 1.3723 3.86058 0.820312 4.53906 0.820312ZM5.35938 13.1797H2.05078C1.82462 13.1797 1.64062 12.9957 1.64062 12.7695V6.5625H5.35938V13.1797ZM5.35938 5.74219H1.23047C1.00431 5.74219 0.820312 5.55819 0.820312 5.33203V4.51172C0.820312 4.28556 1.00431 4.10156 1.23047 4.10156H5.35938V5.74219ZM7.82031 13.1797H6.17969V4.10156C6.26563 4.10156 7.34891 4.10156 7.82031 4.10156V13.1797ZM12.3594 12.7695C12.3594 12.9957 12.1754 13.1797 11.9492 13.1797H8.64062V6.5625H12.3594V12.7695ZM13.1797 5.33203C13.1797 5.55819 12.9957 5.74219 12.7695 5.74219H8.64062V4.10156H12.7695C12.9957 4.10156 13.1797 4.28556 13.1797 4.51172V5.33203Z"/>
</svg>
