<svg width="16" height="16" viewBox="0 0 16 16" fill="#3C3C46" stroke="white" xmlns="http://www.w3.org/2000/svg">
    <path d="M8.49494 1.02508C8.49542 1.0163 8.5 1.0089 8.5 0.999991V0.50001C8.5 0.223648 8.27638 0 7.99998 0C7.72359 0 7.49997 0.223648 7.49997 0.50001V1.00002C7.49997 1.00893 7.50455 1.01633 7.50503 1.02511C3.32472 1.28285 0 4.75591 0 9.00001V9.50002C0 9.77638 0.223648 10 0.50001 10H8.00002V14C8.00002 14.5513 7.55128 15 7.00002 15C6.44877 15 6.00003 14.5513 6.00003 14C6.00003 13.7158 6.12162 13.4439 6.33353 13.2544L5.66653 12.5093C5.24319 12.8882 5.00004 13.4317 5.00004 14C5.00004 15.1031 5.89701 16 7.00005 16C8.1031 16 9.00007 15.1031 9.00007 14V10H15.5C15.7764 10 16.0001 9.77638 16.0001 9.49999V8.99998C16 4.75591 12.6753 1.28282 8.49494 1.02508ZM1.00002 9.00001C1.00002 5.14014 4.14014 2.00001 8.00002 2.00001C11.8599 2.00001 15 5.14014 15 9.00001H1.00002Z" stroke-width="0.2"/>
</svg>
